<?xml version="1.0" standalone="no"?>
<!DOCTYPE svg PUBLIC "-//W3C//DTD SVG 20010904//EN"
 "http://www.w3.org/TR/2001/REC-SVG-20010904/DTD/svg10.dtd">
<svg version="1.0" xmlns="http://www.w3.org/2000/svg"
 width="1024.000000pt" height="1024.000000pt" viewBox="0 0 1024.000000 1024.000000"
 preserveAspectRatio="xMidYMid meet">

<g transform="translate(0.000000,1024.000000) scale(0.100000,-0.100000)"
fill="#000000" stroke="none">
<path d="M5824 8652 c-120 -42 -184 -131 -192 -268 -4 -72 -1 -89 20 -136 66
-144 199 -217 339 -188 195 42 305 260 219 434 -73 145 -233 211 -386 158z"/>
<path d="M4851 8588 c-219 -32 -337 -278 -230 -478 83 -156 260 -218 417 -146
199 92 252 359 104 527 -66 75 -180 113 -291 97z"/>
<path d="M6634 8431 c-68 -29 -87 -130 -35 -182 54 -54 156 -29 181 45 26 81
-68 169 -146 137z"/>
<path d="M3461 8394 c-12 -15 -21 -32 -21 -39 0 -7 9 -24 21 -39 20 -26 22
-26 153 -26 126 0 134 1 154 23 27 29 28 57 3 85 -17 21 -28 22 -154 22 -135
0 -136 0 -156 -26z"/>
<path d="M3083 8334 c-42 -21 -72 -69 -78 -125 -15 -117 128 -202 226 -136 95
64 103 163 20 241 -38 37 -118 46 -168 20z"/>
<path d="M4067 8202 c-28 -6 -41 -50 -22 -78 21 -32 60 -31 81 1 29 44 -6 89
-59 77z"/>
<path d="M6616 8019 c-100 -15 -470 -154 -459 -172 3 -6 2 -7 -4 -4 -5 3 -54
1 -109 -4 -54 -6 -114 -10 -132 -10 -25 0 -41 -8 -65 -34 -18 -19 -35 -35 -40
-35 -4 0 -18 -10 -30 -23 -22 -24 -66 -50 -100 -61 -10 -3 -17 -11 -15 -18 2
-6 -3 -19 -11 -28 -9 -9 -22 -25 -29 -36 -9 -13 -14 -15 -18 -6 -7 15 -54 16
-54 1 0 -5 -14 -15 -30 -21 -17 -5 -35 -19 -41 -29 -8 -15 -21 -19 -64 -19
-54 0 -55 0 -55 -30 0 -28 -3 -30 -37 -30 -21 0 -45 -5 -53 -10 -12 -8 -12
-10 -1 -10 11 0 11 -3 1 -15 -7 -8 -28 -15 -47 -15 -23 0 -41 -8 -57 -25 -13
-14 -30 -25 -39 -25 -14 0 -82 -59 -80 -70 1 -3 -1 -7 -3 -9 -2 -2 -4 1 -4 9
0 9 -3 10 -13 1 -8 -6 -24 -12 -38 -14 -17 -3 -25 -11 -27 -30 -3 -24 -8 -27
-43 -27 -40 0 -56 -19 -16 -21 21 0 21 -1 2 -8 -11 -5 -23 -4 -26 1 -3 5 -20
-4 -37 -21 -25 -26 -39 -31 -79 -31 l-48 -1 30 -15 30 -14 -30 6 -30 6 23 -20
22 -20 -27 2 c-16 1 -34 5 -41 10 -9 5 -24 1 -43 -13 -15 -11 -41 -21 -57 -21
-17 0 -43 -7 -58 -15 -27 -14 -28 -15 -6 -15 13 0 20 -4 17 -10 -9 -15 -55
-12 -61 3 -5 14 -47 17 -60 4 -5 -4 -1 -5 9 -1 13 5 16 2 11 -10 -3 -9 -2 -16
4 -16 6 0 12 6 15 13 2 6 3 -6 1 -28 -2 -22 -3 -52 -3 -67 -1 -15 -13 -42 -29
-59 -35 -39 -102 -50 -151 -25 -17 9 -37 14 -44 9 -8 -4 -7 -1 2 10 12 15 11
17 -8 17 -11 0 -21 5 -21 11 0 5 4 8 9 5 5 -4 7 3 4 14 -3 12 -8 18 -11 15 -3
-2 -11 4 -19 15 -16 23 -8 44 13 36 17 -6 17 -1 3 26 -11 20 -12 19 -26 -11
-12 -24 -13 -34 -3 -45 8 -11 9 -20 1 -33 -10 -17 -10 -16 -11 4 0 12 -4 25
-10 28 -19 12 -10 -24 14 -52 l25 -29 -21 -13 c-18 -11 -20 -11 -15 3 3 8 1
18 -5 22 -7 5 -9 -3 -6 -24 2 -18 0 -28 -5 -25 -5 3 -7 25 -3 49 4 29 2 44 -7
47 -9 3 -9 9 1 26 12 20 11 21 -15 15 -62 -13 -63 -16 -32 -53 17 -21 22 -22
30 -10 11 18 11 1 -1 -26 -5 -11 -9 -14 -9 -7 -1 7 -6 10 -12 7 -6 -4 -8 -13
-5 -21 3 -8 -2 -32 -11 -54 -14 -32 -33 -47 -117 -96 -146 -85 -246 -184 -357
-355 -46 -70 -82 -99 -125 -99 -48 0 -81 18 -99 55 -28 60 -14 124 50 225 19
31 25 51 21 71 -4 23 -2 27 11 22 13 -5 15 -2 9 12 -4 11 -4 16 0 13 8 -8 55
15 72 35 9 11 8 14 -3 14 -8 0 -11 -5 -8 -10 3 -6 1 -7 -6 -3 -8 6 -9 12 -2
20 6 7 8 16 4 19 -10 11 12 8 25 -3 6 -6 10 -7 7 -4 -2 4 3 13 11 21 8 9 12
18 9 22 -4 3 -13 -3 -21 -13 -13 -19 -14 -19 -14 7 0 15 -5 27 -11 27 -6 0 -9
-9 -6 -19 3 -11 -3 -28 -15 -40 -23 -26 -30 -26 -26 -2 2 10 -6 28 -16 40 -18
20 -20 20 -39 4 -11 -10 -18 -13 -14 -7 3 6 0 11 -8 11 -11 0 -11 -5 -4 -19
10 -18 8 -18 -11 -8 -15 8 -20 8 -16 1 4 -6 3 -11 -1 -11 -12 0 -34 -61 -26
-74 3 -6 0 -5 -8 2 -15 14 -33 16 -25 3 4 -5 3 -11 -2 -13 -14 -6 -74 -107
-68 -117 3 -5 -1 -11 -9 -15 -22 -8 -19 0 32 88 64 109 134 206 145 200 5 -3
7 0 6 8 -2 7 2 12 9 11 7 -2 10 3 7 10 -8 21 161 168 269 234 110 67 299 154
577 265 96 39 225 92 285 118 198 86 369 162 453 201 45 21 95 42 110 46 58
14 -16 22 -210 21 l-197 0 -55 48 c-102 91 -81 88 -649 92 -557 3 -575 2 -677
-64 -30 -19 -80 -47 -110 -62 l-55 -27 -295 -5 c-255 -4 -300 -8 -335 -23 -95
-43 -155 -138 -155 -247 1 -143 96 -245 250 -265 114 -14 174 -115 120 -203
-20 -32 -51 -50 -162 -92 -65 -25 -110 -69 -140 -137 -34 -77 -34 -127 1 -248
28 -99 30 -115 21 -162 -14 -66 -58 -126 -112 -155 -40 -21 -61 -22 -333 -30
-159 -4 -308 -13 -330 -19 -60 -16 -140 -75 -174 -127 -49 -77 -55 -118 -43
-281 9 -121 15 -151 37 -197 37 -75 103 -139 183 -177 l67 -32 393 -5 394 -5
29 -33 c20 -22 29 -43 29 -67 0 -74 -39 -111 -127 -121 -74 -8 -124 -40 -152
-96 -25 -52 -27 -105 -6 -155 8 -19 15 -37 15 -39 0 -2 -31 -4 -68 -4 -138 0
-270 -56 -353 -149 -64 -72 -127 -197 -142 -284 -23 -136 28 -283 130 -377 96
-88 179 -117 353 -124 58 -2 113 -5 122 -5 14 -1 12 -9 -15 -52 -30 -49 -32
-59 -37 -168 -3 -64 -11 -126 -18 -138 -7 -12 -29 -35 -49 -50 -36 -28 -36
-28 -237 -33 -184 -5 -205 -8 -249 -29 -158 -77 -155 -306 6 -386 46 -22 63
-25 169 -25 65 0 118 -2 118 -4 0 -2 -18 -31 -41 -65 -87 -130 -114 -298 -74
-456 29 -111 151 -258 256 -308 138 -65 278 -62 407 8 61 33 106 79 169 170
42 61 105 114 136 115 5 0 5 -46 2 -102 -8 -118 7 -202 53 -296 36 -76 141
-181 217 -219 267 -134 590 -2 695 285 39 108 48 116 139 128 l49 6 -25 -68
c-57 -156 1 -297 149 -364 158 -72 351 51 365 233 8 104 -23 168 -130 264 -50
45 -64 101 -42 159 22 57 64 86 132 92 51 4 55 3 91 -34 34 -34 40 -47 46
-101 12 -108 78 -168 182 -167 100 2 174 73 174 168 0 65 43 123 109 145 23 7
174 11 486 11 l451 0 33 -34 c45 -47 80 -60 137 -51 33 5 57 17 86 43 l41 37
96 0 c81 0 101 -3 131 -22 68 -42 92 -130 56 -200 -32 -63 -48 -67 -277 -73
-185 -4 -209 -7 -228 -24 -31 -28 -28 -79 5 -105 26 -21 36 -21 511 -21 397 0
490 3 518 14 84 35 36 136 -65 136 -35 0 -86 55 -95 103 -13 70 30 152 95 180
16 7 166 13 398 16 l373 6 19 25 c25 32 25 62 1 91 l-19 24 -410 5 c-395 5
-412 6 -439 26 -15 11 -37 38 -47 59 -17 35 -18 42 -5 79 9 27 25 47 49 61 34
19 54 20 520 25 531 5 510 3 574 67 77 75 87 195 24 285 -11 16 -40 40 -66 55
-44 26 -56 28 -194 33 -145 5 -147 5 -177 34 -49 47 -53 67 -49 279 3 218 7
229 79 272 32 19 57 20 424 25 338 4 394 7 420 22 62 34 105 102 105 168 0 49
-39 130 -76 159 -23 18 -26 26 -21 58 7 42 -17 106 -49 135 -107 95 -274 25
-274 -115 l0 -48 -248 3 c-246 3 -249 3 -285 28 -104 70 -100 228 6 279 38 19
61 21 195 21 196 0 239 16 283 102 23 45 24 96 4 145 -21 50 -42 72 -90 94
-37 17 -73 19 -441 19 l-401 0 28 96 c16 53 29 104 29 114 0 28 35 31 305 29
284 -3 307 2 353 71 49 72 -1 170 -86 170 -82 0 -145 77 -123 150 14 46 45 75
96 89 25 7 152 11 329 11 274 0 292 1 333 21 57 28 94 77 101 134 10 89 -51
181 -135 204 -23 7 -174 11 -385 11 -390 0 -357 -7 -338 76 5 22 14 88 19 147
17 176 6 171 331 177 232 5 258 7 289 25 49 29 73 67 79 123 6 63 -24 120 -78
151 -35 20 -52 21 -256 21 -121 0 -237 5 -259 10 -26 6 -52 22 -74 46 -30 33
-33 41 -28 81 9 83 71 123 190 123 59 0 83 5 125 26 113 56 162 192 111 304
-25 56 -53 86 -104 113 -36 20 -60 22 -245 27 -194 5 -208 6 -260 31 -31 14
-91 55 -135 91 -147 119 -275 195 -405 240 -121 42 -354 59 -504 37z m-2366
-476 c-14 -3 -32 -10 -40 -16 -13 -11 -13 -10 -1 6 7 9 25 16 40 16 l26 -2
-25 -4z m-60 -27 c0 -2 -7 -7 -16 -10 -8 -3 -12 -2 -9 4 6 10 25 14 25 6z
m2595 -56 c198 -63 355 -181 470 -351 90 -134 132 -259 141 -419 8 -132 -20
-277 -73 -389 l-36 -76 -19 65 c-76 261 -198 477 -372 658 -232 242 -490 380
-776 417 l-55 8 54 24 c57 24 183 64 261 82 25 5 110 9 190 7 116 -3 159 -8
215 -26z m-2702 13 c-7 -2 -19 -2 -25 0 -7 3 -2 5 12 5 14 0 19 -2 13 -5z
m-436 -19 c-3 -3 -12 -4 -19 -1 -8 3 -5 6 6 6 11 1 17 -2 13 -5z m-252 -114
c-3 -5 -11 -10 -16 -10 -6 0 -7 5 -4 10 3 6 11 10 16 10 6 0 7 -4 4 -10z
m1745 -4 c0 -3 -4 -8 -10 -11 -5 -3 -10 -1 -10 4 0 6 5 11 10 11 6 0 10 -2 10
-4z m-1785 -35 c-3 -6 -11 -11 -16 -11 -5 0 -4 6 3 14 14 16 24 13 13 -3z
m2772 -147 c-3 -3 -12 -4 -19 -1 -8 3 -5 6 6 6 11 1 17 -2 13 -5z m-147 -13
c-8 -5 -26 -11 -40 -15 -21 -5 -20 -3 5 9 32 15 60 20 35 6z m-81 -35 c-2 -2
-15 -9 -29 -15 -24 -11 -24 -11 -6 3 16 13 49 24 35 12z m-64 -25 c-13 -12
-85 -42 -85 -35 0 4 77 41 90 43 2 1 0 -3 -5 -8z m-1228 -47 c-3 -3 -12 -4
-19 -1 -8 3 -5 6 6 6 11 1 17 -2 13 -5z m1113 -14 c0 -5 -8 -10 -17 -10 -15 0
-16 2 -3 10 19 12 20 12 20 0z m-69 -29 c-11 -7 -11 -9 0 -14 8 -2 3 -4 -11
-4 -14 0 -34 -3 -45 -7 -11 -4 -4 2 15 13 34 19 69 30 41 12z m-1541 -73 c0
-13 -23 -5 -28 10 -2 7 2 10 12 6 9 -3 16 -11 16 -16z m1390 2 c-8 -5 -19 -10
-25 -10 -5 0 -3 5 5 10 8 5 20 10 25 10 6 0 3 -5 -5 -10z m-2072 -390 c-7 -10
-14 -18 -15 -16 -6 6 9 36 18 36 5 0 4 -9 -3 -20z m-217 -87 c-12 -20 -14 -14
-5 12 4 9 9 14 11 11 3 -2 0 -13 -6 -23z m1409 3 c93 -47 1567 -1029 1607
-1071 30 -32 53 -88 53 -130 -1 -11 -11 -40 -23 -65 -25 -51 -74 -90 -267
-209 -169 -104 -1137 -722 -1225 -781 -119 -80 -152 -94 -225 -94 -112 0 -207
72 -229 173 -15 73 -15 1959 0 2032 29 134 184 207 309 145z m-1429 -53 c-12
-20 -14 -14 -5 12 4 9 9 14 11 11 3 -2 0 -13 -6 -23z m601 -135 c27 -36 23
-72 -14 -103 -23 -20 -38 -25 -57 -20 -59 14 -81 88 -38 133 18 19 29 23 57
18 19 -3 42 -16 52 -28z m-351 -237 c39 -39 41 -109 5 -146 -53 -53 -144 -37
-172 30 -44 105 87 196 167 116z m-691 -2412 c41 -16 65 -58 65 -112 0 -43 -4
-52 -37 -83 -29 -26 -46 -34 -75 -34 -114 0 -173 136 -92 211 40 37 76 42 139
18z"/>
<path d="M5398 7803 c7 -3 16 -2 19 1 4 3 -2 6 -13 5 -11 0 -14 -3 -6 -6z"/>
<path d="M4650 7140 c0 -5 5 -10 10 -10 6 0 10 5 10 10 0 6 -4 10 -10 10 -5 0
-10 -4 -10 -10z"/>
<path d="M1998 7058 c-53 -14 -105 -74 -113 -131 -10 -62 20 -127 74 -163 35
-23 49 -26 94 -22 68 6 113 37 139 96 56 125 -60 256 -194 220z"/>
<path d="M4378 7053 c7 -3 16 -2 19 1 4 3 -2 6 -13 5 -11 0 -14 -3 -6 -6z"/>
<path d="M4215 7020 c-3 -5 -1 -10 4 -10 6 0 11 5 11 10 0 6 -2 10 -4 10 -3 0
-8 -4 -11 -10z"/>
<path d="M4161 6994 c0 -11 3 -14 6 -6 3 7 2 16 -1 19 -3 4 -6 -2 -5 -13z"/>
<path d="M3502 6814 c-7 -8 -8 -14 -3 -14 10 0 25 19 20 25 -2 1 -10 -3 -17
-11z"/>
<path d="M3600 6784 c0 -14 3 -14 15 -4 8 7 15 14 15 16 0 2 -7 4 -15 4 -8 0
-15 -7 -15 -16z"/>
<path d="M1746 6479 c-23 -33 0 -79 40 -79 14 0 30 10 40 25 15 23 15 27 0 50
-20 31 -59 33 -80 4z"/>
<path d="M8607 6429 c-29 -40 7 -88 56 -75 30 7 46 49 30 75 -16 26 -68 26
-86 0z"/>
<path d="M8665 5613 c-11 -3 -32 -17 -47 -31 -46 -43 -35 -122 22 -155 35 -21
62 -21 100 -2 36 18 52 47 52 90 0 46 -18 74 -57 91 -36 15 -37 15 -70 7z"/>
<path d="M8578 4906 c-25 -19 -23 -62 4 -80 12 -9 26 -16 30 -16 14 0 48 39
48 55 0 18 -35 55 -52 55 -7 0 -21 -7 -30 -14z"/>
<path d="M1624 4855 c-15 -23 -15 -27 0 -50 10 -15 26 -25 40 -25 28 0 51 24
40 41 -4 8 -3 9 4 5 20 -12 13 13 -8 34 -27 27 -56 25 -76 -5z"/>
<path d="M1762 3698 c-30 -30 -3 -98 39 -98 24 0 59 34 59 58 0 41 -69 69 -98
40z"/>
<path d="M8460 3297 c-14 -7 -33 -28 -42 -47 -54 -109 86 -201 165 -108 39 46
37 90 -7 134 -37 37 -72 43 -116 21z"/>
<path d="M5416 2300 c-174 -68 -226 -300 -102 -448 48 -56 109 -85 192 -90 68
-4 79 -2 140 28 76 37 116 85 140 169 40 137 -25 284 -151 342 -54 25 -154 24
-219 -1z"/>
</g>
</svg>
